<?xml version="1.0" encoding="utf-8"?>
<!-- Generator: Adobe Illustrator 22.1.0, SVG Export Plug-In . SVG Version: 6.00 Build 0)  -->
<svg version="1.1" id="Layer_5" xmlns="http://www.w3.org/2000/svg" xmlns:xlink="http://www.w3.org/1999/xlink" x="0px" y="0px"
	 viewBox="0 0 160 200" style="enable-background:new 0 0 160 200;" xml:space="preserve">
<style type="text/css">
	.st0{fill:#333333;}
</style>
<g>
	<g>
		<path class="st0" d="M158.1,68.5c0-0.1,0-0.2,0-0.2c0-0.1,0-0.1,0-0.2c0-0.1,0-0.1-0.1-0.2c0-0.1,0-0.1-0.1-0.2
			c0-0.1,0-0.1-0.1-0.2c0-0.1-0.1-0.1-0.1-0.2c0-0.1-0.1-0.1-0.1-0.2l-0.1-0.2c0-0.1-0.1-0.1-0.1-0.2c0-0.1-0.1-0.1-0.1-0.2
			c0-0.1-0.1-0.1-0.1-0.2c0-0.1-0.1-0.1-0.1-0.2c0-0.1-0.1-0.1-0.1-0.2c0-0.1-0.1-0.1-0.1-0.1l-0.2-0.2c-0.1,0-0.1-0.1-0.2-0.1
			c-0.1,0-0.1-0.1-0.2-0.1c-0.1,0-0.1-0.1-0.2-0.1c-0.1,0-0.1-0.1-0.2-0.1l-0.4-0.2l-0.2-0.1c-0.1,0-0.1,0-0.2-0.1
			c-0.1,0-0.2-0.1-0.2-0.1c-0.1,0-0.1,0-0.2,0c-0.1,0-0.2,0-0.3,0c0,0-0.1,0-0.1,0L135,61.8V44.5c0-22.6-18.4-41-41-41h-0.7
			c-22.6,0-41,18.4-41,41v5.9l-15.6-2.2V31.9c0-0.2,0-0.3,0-0.5c0,0,0-0.1,0-0.1c0-0.1,0-0.2,0-0.3c0-0.1,0-0.2-0.1-0.3
			c0-0.1,0-0.1,0-0.2l-0.1-0.3c0,0,0-0.1,0-0.1c0-0.1-0.1-0.2-0.1-0.3c0,0,0-0.1-0.1-0.1c0-0.1-0.1-0.1-0.1-0.2
			c0-0.1-0.1-0.1-0.1-0.2c0-0.1-0.1-0.1-0.1-0.2c0-0.1-0.1-0.1-0.1-0.2l-0.3-0.3l-0.1-0.1c-0.1-0.1-0.1-0.1-0.2-0.2
			c0,0-0.1-0.1-0.1-0.1c-0.1-0.1-0.1-0.1-0.2-0.2c-0.1-0.1-0.2-0.1-0.3-0.2c0,0-0.1,0-0.1-0.1c-0.1-0.1-0.3-0.1-0.4-0.2L8.4,16.8
			c-2.4-1-5.1,0.1-6.1,2.5c-1,2.4,0.1,5.1,2.5,6.1L27.3,35v43.7v2.2v68.3c0,9.7,7.3,17.7,16.6,18.9c-1.7,2.8-2.7,6.2-2.7,9.7
			c0,10.4,8.5,18.8,18.8,18.8s18.8-8.5,18.8-18.8c0-3.5-0.9-6.7-2.6-9.5h42c-1.7,2.8-2.6,6-2.6,9.5c0,10.4,8.5,18.8,18.8,18.8
			s18.8-8.5,18.8-18.8c0-10.4-8.5-18.8-18.8-18.8H46.4c-5.4,0-9.7-4.4-9.7-9.7v-12.6c2.8,1.7,6.2,2.6,9.7,2.6h92.7
			c10.5,0,19.1-8.6,19.1-19.1V80.8v-2.2v-10C158.1,68.6,158.1,68.6,158.1,68.5z M134.6,168.1c5.2,0,9.5,4.3,9.5,9.5
			c0,5.3-4.3,9.5-9.5,9.5c-5.2,0-9.5-4.3-9.5-9.5C125.1,172.4,129.3,168.1,134.6,168.1z M60.1,168.1c5.2,0,9.5,4.3,9.5,9.5
			c0,5.3-4.3,9.5-9.5,9.5c-5.2,0-9.5-4.3-9.5-9.5C50.6,172.4,54.9,168.1,60.1,168.1z M61.4,44.5c0-17.6,14.3-31.9,31.9-31.9H94
			c17.6,0,31.9,14.3,31.9,31.9v16.1l-64.6-8.9V44.5z M148.8,80.8v39.1c0,5.4-4.4,9.8-9.7,9.8H46.4c-5.4,0-9.7-4.4-9.7-9.7V80.8v-2.2
			v-21l112.2,15.4v5.5V80.8z"/>
	</g>
	<path class="st0" d="M93.7,88.2c2.4,0,4.3-1.9,4.3-4.3c0-2.4-1.9-4.3-4.3-4.3c-10.1,0-18.4,8.2-18.4,18.4
		c0,10.1,8.2,18.4,18.4,18.4c10.1,0,18.4-8.2,18.4-18.4c0-2.4-1.9-4.3-4.3-4.3c-2.4,0-4.3,1.9-4.3,4.3c0,5.4-4.4,9.8-9.8,9.8
		c-5.4,0-9.8-4.4-9.8-9.8C83.8,92.6,88.2,88.2,93.7,88.2L93.7,88.2z M93.7,88.2"/>
</g>
</svg>
